<?xml version="1.0" encoding="UTF-8"?>
<!DOCTYPE svg PUBLIC "-//W3C//DTD SVG 1.1//EN" "http://www.w3.org/Graphics/SVG/1.1/DTD/svg11.dtd">
<!-- Creator: CorelDRAW 2020 (64 Bit) -->
<svg xmlns="http://www.w3.org/2000/svg" xml:space="preserve" width="401.333mm" height="216.472mm" version="1.1" style="shape-rendering:geometricPrecision; text-rendering:geometricPrecision; image-rendering:optimizeQuality; fill-rule:evenodd; clip-rule:evenodd"
viewBox="0 0 40133.32 21647.22"
 xmlns:xlink="http://www.w3.org/1999/xlink"
 xmlns:xodm="http://www.corel.com/coreldraw/odm/2003">
 <defs>
  <style type="text/css">
   <![CDATA[
    .fil1 {fill:black;fill-rule:nonzero}
    .fil0 {fill:#F4C418;fill-rule:nonzero}
   ]]>
  </style>
 </defs>
 <g id="katman_x0020_1">
  <metadata id="CorelCorpID_0Corel-Layer"/>
  <g id="_1538875077952">
   <path class="fil0" d="M3174.42 1162.86l33809.49 0c1333.75,0 2414.97,1081.22 2414.97,2414.97l0 14489.78c0,1333.75 -1081.22,2414.96 -2414.97,2414.96l-33809.49 0c-1333.75,0 -2414.97,-1081.21 -2414.97,-2414.96l0 -14489.78c0,-1333.75 1081.22,-2414.97 2414.97,-2414.97z"/>
  </g>
  <g id="_1538875077712">
   <polygon class="fil1" points="5589.38,16256.38 8608.09,16256.38 8608.09,5389.05 5589.38,5389.05 "/>
   <path class="fil1" d="M15051.53 5389.05l-675.61 5076.54 -419.77 -2761.18c-121.71,-884.44 -238.45,-1656.22 -350.23,-2315.36l-3790.35 0 0 10867.33 2560.85 0 9.93 -7176.17 1078 7176.17 1823.14 0 1023.35 -7334.36 7.45 7334.36 2553.4 0 0 -10867.33 -3820.16 0z"/>
   <path class="fil1" d="M20079.17 16256.38l0 -10867.33 4711.92 0c1065.48,0 1929.22,857.28 1929.22,1917.85l0 7031.64c0,1059.19 -862.34,1917.84 -1929.22,1917.84l-4711.92 0zm3521.16 -8911.49l0 0c-119.74,-64.72 -348.8,-95.88 -681.99,-95.88l0 7130.64c439.91,0 710.62,-79.1 812.14,-244.48 101.51,-162.99 153.57,-604.01 153.57,-1327.86l0 -4213.66c0,-491.36 -18.22,-805.35 -52.06,-944.36 -33.84,-139.02 -109.32,-239.69 -231.66,-304.4z"/>
   <path class="fil1" d="M32413.54 8110.03l192.96 0c1083.83,0 1962.45,848.75 1962.45,1894.54l0 4357.27c0,1046.33 -878.34,1894.54 -1962.45,1894.54l-192.96 0c-663.18,0 -1249.53,-317.77 -1604.77,-804.01l-173.86 664.42 -2707.11 0 0 -10727.74 2888.49 0 0 3489.95c373.22,-465.11 948.37,-768.97 1597.25,-768.97zm-618.44 5299.24l0 0 0 -2575.03c0,-425.48 -27.31,-704.7 -84.22,-833.23 -56.9,-128.53 -284.05,-211.05 -443.38,-211.05 -159.33,0 -405.04,67.06 -452.84,180.08l0 864.2 0 2657.48 0 837.21c54.63,124.1 288.96,193.15 452.84,193.15 163.88,0 402.41,-66.84 452.49,-193.15 50.07,-126.32 75.11,-434.35 75.11,-919.66z"/>
  </g>
 </g>
</svg>
